<svg xmlns="http://www.w3.org/2000/svg" xmlns:xlink="http://www.w3.org/1999/xlink" width="500" zoomAndPan="magnify" viewBox="0 0 375 374.999991" height="500" preserveAspectRatio="xMidYMid meet" version="1.0"><defs><g/></defs><g fill="#0bab50" fill-opacity="1"><g transform="translate(4.076396, 235.003185)"><g><path d="M 15.421875 0 L 15.421875 -142.75 L 54.1875 -142.75 L 54.1875 0 Z M 15.421875 0 "/></g></g><g transform="translate(73.693113, 235.003185)"><g><path d="M 151.34375 0 L 100.765625 0 L 48.625 -100.5625 L 47.75 -100.5625 C 48.988281 -84.75 49.609375 -72.675781 49.609375 -64.34375 L 49.609375 0 L 15.421875 0 L 15.421875 -142.75 L 65.8125 -142.75 L 117.75 -43.546875 L 118.34375 -43.546875 C 117.425781 -57.929688 116.96875 -69.484375 116.96875 -78.203125 L 116.96875 -142.75 L 151.34375 -142.75 Z M 151.34375 0 "/></g></g><g transform="translate(240.460788, 235.003185)"><g><path d="M 78.984375 -113.171875 C 69.804688 -113.171875 62.644531 -109.410156 57.5 -101.890625 C 52.363281 -94.367188 49.796875 -84.003906 49.796875 -70.796875 C 49.796875 -43.316406 60.242188 -29.578125 81.140625 -29.578125 C 87.453125 -29.578125 93.566406 -30.457031 99.484375 -32.21875 C 105.410156 -33.976562 111.367188 -36.09375 117.359375 -38.5625 L 117.359375 -5.953125 C 105.453125 -0.679688 91.976562 1.953125 76.9375 1.953125 C 55.394531 1.953125 38.878906 -4.296875 27.390625 -16.796875 C 15.898438 -29.296875 10.15625 -47.359375 10.15625 -70.984375 C 10.15625 -85.765625 12.9375 -98.75 18.5 -109.9375 C 24.0625 -121.132812 32.066406 -129.742188 42.515625 -135.765625 C 52.960938 -141.785156 65.25 -144.796875 79.375 -144.796875 C 94.800781 -144.796875 109.546875 -141.445312 123.609375 -134.75 L 111.796875 -104.375 C 106.523438 -106.851562 101.253906 -108.9375 95.984375 -110.625 C 90.710938 -112.320312 85.046875 -113.171875 78.984375 -113.171875 Z M 78.984375 -113.171875 "/></g></g></g><g fill="#6fd842" fill-opacity="1"><g transform="translate(12.513659, 292.150586)"><g><path d="M 4.96875 -36.171875 L 15.1875 -36.171875 C 19.988281 -36.171875 23.460938 -35.453125 25.609375 -34.015625 C 27.753906 -32.585938 28.828125 -30.320312 28.828125 -27.21875 C 28.828125 -25.070312 28.226562 -23.300781 27.03125 -21.90625 C 25.832031 -20.507812 24.085938 -19.609375 21.796875 -19.203125 L 21.796875 -18.953125 C 27.285156 -18.015625 30.03125 -15.128906 30.03125 -10.296875 C 30.03125 -7.054688 28.9375 -4.53125 26.75 -2.71875 C 24.570312 -0.90625 21.519531 0 17.59375 0 L 4.96875 0 Z M 9.171875 -20.6875 L 16.109375 -20.6875 C 19.078125 -20.6875 21.210938 -21.148438 22.515625 -22.078125 C 23.816406 -23.015625 24.46875 -24.585938 24.46875 -26.796875 C 24.46875 -28.828125 23.738281 -30.289062 22.28125 -31.1875 C 20.832031 -32.082031 18.523438 -32.53125 15.359375 -32.53125 L 9.171875 -32.53125 Z M 9.171875 -17.125 L 9.171875 -3.59375 L 16.71875 -3.59375 C 19.644531 -3.59375 21.84375 -4.15625 23.3125 -5.28125 C 24.789062 -6.414062 25.53125 -8.1875 25.53125 -10.59375 C 25.53125 -12.832031 24.773438 -14.476562 23.265625 -15.53125 C 21.753906 -16.59375 19.457031 -17.125 16.375 -17.125 Z M 9.171875 -17.125 "/></g></g></g><g fill="#6fd842" fill-opacity="1"><g transform="translate(45.338872, 292.150586)"><g><path d="M 36.375 -18.140625 C 36.375 -12.347656 34.910156 -7.789062 31.984375 -4.46875 C 29.054688 -1.15625 24.984375 0.5 19.765625 0.5 C 14.441406 0.5 10.332031 -1.128906 7.4375 -4.390625 C 4.539062 -7.648438 3.09375 -12.25 3.09375 -18.1875 C 3.09375 -24.070312 4.539062 -28.632812 7.4375 -31.875 C 10.34375 -35.113281 14.46875 -36.734375 19.8125 -36.734375 C 25.007812 -36.734375 29.066406 -35.082031 31.984375 -31.78125 C 34.910156 -28.488281 36.375 -23.941406 36.375 -18.140625 Z M 7.546875 -18.140625 C 7.546875 -13.234375 8.585938 -9.515625 10.671875 -6.984375 C 12.765625 -4.453125 15.796875 -3.1875 19.765625 -3.1875 C 23.773438 -3.1875 26.800781 -4.445312 28.84375 -6.96875 C 30.894531 -9.5 31.921875 -13.222656 31.921875 -18.140625 C 31.921875 -23.003906 30.898438 -26.691406 28.859375 -29.203125 C 26.828125 -31.722656 23.8125 -32.984375 19.8125 -32.984375 C 15.8125 -32.984375 12.765625 -31.71875 10.671875 -29.1875 C 8.585938 -26.65625 7.546875 -22.972656 7.546875 -18.140625 Z M 7.546875 -18.140625 "/></g></g></g><g fill="#6fd842" fill-opacity="1"><g transform="translate(84.79344, 292.150586)"><g><path d="M 36.375 -18.140625 C 36.375 -12.347656 34.910156 -7.789062 31.984375 -4.46875 C 29.054688 -1.15625 24.984375 0.5 19.765625 0.5 C 14.441406 0.5 10.332031 -1.128906 7.4375 -4.390625 C 4.539062 -7.648438 3.09375 -12.25 3.09375 -18.1875 C 3.09375 -24.070312 4.539062 -28.632812 7.4375 -31.875 C 10.34375 -35.113281 14.46875 -36.734375 19.8125 -36.734375 C 25.007812 -36.734375 29.066406 -35.082031 31.984375 -31.78125 C 34.910156 -28.488281 36.375 -23.941406 36.375 -18.140625 Z M 7.546875 -18.140625 C 7.546875 -13.234375 8.585938 -9.515625 10.671875 -6.984375 C 12.765625 -4.453125 15.796875 -3.1875 19.765625 -3.1875 C 23.773438 -3.1875 26.800781 -4.445312 28.84375 -6.96875 C 30.894531 -9.5 31.921875 -13.222656 31.921875 -18.140625 C 31.921875 -23.003906 30.898438 -26.691406 28.859375 -29.203125 C 26.828125 -31.722656 23.8125 -32.984375 19.8125 -32.984375 C 15.8125 -32.984375 12.765625 -31.71875 10.671875 -29.1875 C 8.585938 -26.65625 7.546875 -22.972656 7.546875 -18.140625 Z M 7.546875 -18.140625 "/></g></g></g><g fill="#6fd842" fill-opacity="1"><g transform="translate(124.248007, 292.150586)"><g><path d="M 31.09375 0 L 26.15625 0 L 12.96875 -17.546875 L 9.171875 -14.171875 L 9.171875 0 L 4.96875 0 L 4.96875 -36.171875 L 9.171875 -36.171875 L 9.171875 -18.234375 L 25.578125 -36.171875 L 30.5625 -36.171875 L 16.015625 -20.46875 Z M 31.09375 0 "/></g></g></g><g fill="#6fd842" fill-opacity="1"><g transform="translate(155.341671, 292.150586)"><g><path d="M 31.09375 0 L 26.15625 0 L 12.96875 -17.546875 L 9.171875 -14.171875 L 9.171875 0 L 4.96875 0 L 4.96875 -36.171875 L 9.171875 -36.171875 L 9.171875 -18.234375 L 25.578125 -36.171875 L 30.5625 -36.171875 L 16.015625 -20.46875 Z M 31.09375 0 "/></g></g></g><g fill="#6fd842" fill-opacity="1"><g transform="translate(186.435335, 292.150586)"><g><path d="M 25.140625 0 L 4.96875 0 L 4.96875 -36.171875 L 25.140625 -36.171875 L 25.140625 -32.4375 L 9.171875 -32.4375 L 9.171875 -20.78125 L 24.171875 -20.78125 L 24.171875 -17.078125 L 9.171875 -17.078125 L 9.171875 -3.765625 L 25.140625 -3.765625 Z M 25.140625 0 "/></g></g></g><g fill="#6fd842" fill-opacity="1"><g transform="translate(214.610103, 292.150586)"><g><path d="M 25.140625 0 L 4.96875 0 L 4.96875 -36.171875 L 25.140625 -36.171875 L 25.140625 -32.4375 L 9.171875 -32.4375 L 9.171875 -20.78125 L 24.171875 -20.78125 L 24.171875 -17.078125 L 9.171875 -17.078125 L 9.171875 -3.765625 L 25.140625 -3.765625 Z M 25.140625 0 "/></g></g></g><g fill="#6fd842" fill-opacity="1"><g transform="translate(242.784883, 292.150586)"><g><path d="M 27.90625 -25.640625 C 27.90625 -21.972656 26.65625 -19.15625 24.15625 -17.1875 C 21.65625 -15.21875 18.082031 -14.234375 13.4375 -14.234375 L 9.171875 -14.234375 L 9.171875 0 L 4.96875 0 L 4.96875 -36.171875 L 14.34375 -36.171875 C 23.382812 -36.171875 27.90625 -32.660156 27.90625 -25.640625 Z M 9.171875 -17.84375 L 12.96875 -17.84375 C 16.695312 -17.84375 19.390625 -18.441406 21.046875 -19.640625 C 22.710938 -20.847656 23.546875 -22.78125 23.546875 -25.4375 C 23.546875 -27.820312 22.765625 -29.597656 21.203125 -30.765625 C 19.640625 -31.941406 17.195312 -32.53125 13.875 -32.53125 L 9.171875 -32.53125 Z M 9.171875 -17.84375 "/></g></g></g><g fill="#6fd842" fill-opacity="1"><g transform="translate(273.284873, 292.150586)"><g><path d="M 4.96875 0 L 4.96875 -36.171875 L 9.171875 -36.171875 L 9.171875 0 Z M 4.96875 0 "/></g></g></g><g fill="#6fd842" fill-opacity="1"><g transform="translate(287.409376, 292.150586)"><g><path d="M 33.234375 0 L 28.421875 0 L 8.65625 -30.359375 L 8.46875 -30.359375 C 8.726562 -26.796875 8.859375 -23.53125 8.859375 -20.5625 L 8.859375 0 L 4.96875 0 L 4.96875 -36.171875 L 9.71875 -36.171875 L 29.4375 -5.9375 L 29.640625 -5.9375 C 29.609375 -6.382812 29.535156 -7.816406 29.421875 -10.234375 C 29.304688 -12.648438 29.265625 -14.378906 29.296875 -15.421875 L 29.296875 -36.171875 L 33.234375 -36.171875 Z M 33.234375 0 "/></g></g></g><g fill="#6fd842" fill-opacity="1"><g transform="translate(325.602382, 292.150586)"><g><path d="M 20.875 -18.953125 L 33.171875 -18.953125 L 33.171875 -1.359375 C 31.265625 -0.753906 29.320312 -0.296875 27.34375 0.015625 C 25.363281 0.335938 23.070312 0.5 20.46875 0.5 C 14.988281 0.5 10.722656 -1.128906 7.671875 -4.390625 C 4.617188 -7.648438 3.09375 -12.21875 3.09375 -18.09375 C 3.09375 -21.851562 3.847656 -25.144531 5.359375 -27.96875 C 6.867188 -30.800781 9.039062 -32.960938 11.875 -34.453125 C 14.707031 -35.941406 18.03125 -36.6875 21.84375 -36.6875 C 25.707031 -36.6875 29.304688 -35.976562 32.640625 -34.5625 L 31 -30.859375 C 27.738281 -32.242188 24.597656 -32.9375 21.578125 -32.9375 C 17.171875 -32.9375 13.726562 -31.625 11.25 -29 C 8.78125 -26.375 7.546875 -22.738281 7.546875 -18.09375 C 7.546875 -13.207031 8.738281 -9.5 11.125 -6.96875 C 13.507812 -4.445312 17.007812 -3.1875 21.625 -3.1875 C 24.132812 -3.1875 26.582031 -3.476562 28.96875 -4.0625 L 28.96875 -15.1875 L 20.875 -15.1875 Z M 20.875 -18.953125 "/></g></g></g></svg>